<svg xmlns="http://www.w3.org/2000/svg" viewBox="0 0 749.51 210.16"><defs><style>.cls-1{fill:#93e200;}</style></defs><g id="Шар_2" data-name="Шар 2"><g id="Шар_1-2" data-name="Шар 1"><path class="cls-1" d="M92.2,40.26S43.18,20.09,11.77,39C11.77,39-12,53.79,8,77.43c0,0,22.6,22.58,91,7.21,4.7-1,5.14,1.91,5.14,6.73v95.91a8.34,8.34,0,0,0,8.34,8.34h1.15a8.39,8.39,0,0,0,8.56-8.34V95.22c0-8.72-.9-11.72,7.21-14.53,0,0,52.32-19.32,75.64-5.19,11.42,6.91,8.83,21.65-.51,26-14.16,6.64-51.63-1.32-51.63-1.32,44.05,14.3,59.85,7.81,66.44-.21,7.54-9.19,2.32-21.26,2.32-21.26C202,43.21,105.86,70.68,105.86,70.68L88.94,74c-15.13,2.5-26.9,5.06-36.4,5.56-9.7.51-19-1-25-3.23-13-4.87-14.41-14.65-11.58-20.94C15.94,55.41,26.58,26.47,92.2,40.26Z"/><path class="cls-1" d="M202,162.78c-5.05-.34-10.13-.38-15-.23a1.48,1.48,0,0,1,0-.21,20.74,20.74,0,0,0-.86-6.43,16.67,16.67,0,0,0-4.94-7.6,17,17,0,0,0-6.89-3.46c-4.5-1.28-8.19-.74-11.45-.26A38.81,38.81,0,0,0,151.87,148c-3.66,1.74-6.77,3.21-9.63,6.61a20.11,20.11,0,0,0-4.43,8.92c-.33,1.64-.32,3.8-.31,8.12,0,2.38.07,1.61.17,6.38.08,3.38.6,6.74.68,10.11a5,5,0,0,0,.49,2.18,5.43,5.43,0,0,0,2.2,2.25,6.72,6.72,0,0,0,2.1.88,8.82,8.82,0,0,0,2.65.08,9.3,9.3,0,0,0,1.27-.17,3.44,3.44,0,0,0,2.38-1.44,5.74,5.74,0,0,0,.94-1.17c.1-.31.26-.8.42-1.4,1.25-4.65.78-8.26,0-14.76-.55-4.8,10.35-5.27,23-4.94V170c0,5.59,0,7.64,0,8.71.08,8.89.36,7.19.22,8.42a8.21,8.21,0,0,0,.26,3.91,6,6,0,0,0,2,2.85,6.16,6.16,0,0,0,2.54,1.11,8.43,8.43,0,0,0,3.59,0,6.51,6.51,0,0,0,3.56-1.61,7.31,7.31,0,0,0,.78-1,6.79,6.79,0,0,0,.84-1.59,7.12,7.12,0,0,0,.32-1.47c.22-2.07-.23-11.67-.6-19.2,3.18.11,6.24.2,9,.21,8.07,0,13.89-3.41,13.91-3.75S209.75,163.3,202,162.78Zm-51.65.56A15.41,15.41,0,0,1,161.42,153c1.67-.38,6.61-1.5,9.73,1.31,2,1.8,2.31,4.38,2.73,7.75a10.54,10.54,0,0,1,.1,1.15C159.8,164.33,149.54,165.89,150.34,163.34Z"/><path class="cls-1" d="M282.08,186.47l1.8,0c3-.07,5,.29,4.95,2.9,0,3.29.46,5.73-2.82,5.89l-5.65.27c-13.34.65-29.86,1.42-44.88,1.82-19,.5-18.52-10.39-18.3-12.24a4.3,4.3,0,0,0,0-.62l-.32-70.51s-.2-6.27,6.82-6.27c5.33,0,5.36,5.54,5.36,5.54l.47,60.55,0,4.1c0,2.53-.61,8.79,1.92,9,1.42.1,8.14.38,10.11.35,12.24-.18,10.78.24,26.17-.51"/><path class="cls-1" d="M234,140.32V171s-1.1,7.83,10.69,8.17c9.63.28,23.81.25,31.42.21a5.45,5.45,0,0,0,5.21-3.58c.6-1.83-.09-3.74-5.29-4.08-7.54-.49-14.25-.49-21.51-.42a9.71,9.71,0,0,1-8.47-4.64c-1.41-2.38-1.66-4.85,2.93-5.19,6.75-.5,15.88-.9,20.25-1.08a3.82,3.82,0,0,0,3.73-4.07c-.17-1.71-1.51-3.38-5.93-3.7-6.23-.44-12.65-1-16.35-1.32a5.25,5.25,0,0,1-4.86-4.95c-.05-1.64.78-3.11,3.84-3.26,6.12-.29,21.17.82,27.81.71,1.52,0,3.61-.48,3.84-2,.53-3.5.93-5.39-14.49-6.06-23.49-1-24-1.52-24-1.52S234,133.17,234,140.32Z"/><path class="cls-1" d="M518,154c-16.05-.17-16.37,6-16.3,11,0,0-.17,9.28,14.39,10.73,10.46,1,29.11,4.31,42.76,1.4,0,0,4.6.14,4.73-6.51s0-27.57,0-27.57-.13-5.11-10-5.11H496.9s-17.49-.64-17.75,7.66l1.92,31s-.51,10.26,15.57,10.72c0,0,12.95.65,21.06-1.21,1-.23,2.07-.35,3.1-.57,3.11-.65,12.71-2,16.18,5.36a14.89,14.89,0,0,0,1.21,2,5.68,5.68,0,0,0,6.18,2.33c1.71-.48,3.11-1.56,1.68-4-.23-.38-.47-.76-.73-1.14a23.45,23.45,0,0,0-18.16-10.41,24.69,24.69,0,0,0-4.68.18l-.11,0c-38.55,8.19-27.64-29.5-27.64-29.5a5.73,5.73,0,0,1,2.81-3.32c1.81-1,5.12-1.11,7.27-1.28,4.58-.36,31.08-.17,34.54-.24a5.51,5.51,0,0,1,.7,0c2.09.22,12,1.56,12.25,7.5.26,6.64.64,14,.64,14s1,4.6-11,4.47-16.72-.38-16.72-.38c-5.08-.32-9.39-1.11-11.49-2.77a7.13,7.13,0,0,1-2.68-6.42s.21-3.79,3.78-4.3c0,0,3.43-.55,5.39,1.25a5.64,5.64,0,0,1,.63.71,1.3,1.3,0,0,0,2.27-.22c1.07-2.53,1.31-5.66-4.14-5.46C509.94,154.36,518,154,518,154Z"/><path class="cls-1" d="M322.37,22.9V170.64a26.1,26.1,0,0,0,17.94,24.84l.44.14a14.85,14.85,0,0,0,16-3.93,20.25,20.25,0,0,0,5.56-12.12c.3-2.92.65-7.39.89-13.9.51-14,11.23-13.08,11.23-13.08l31,.8a9.56,9.56,0,0,1,9.29,9c.4,7.11,1,16.74,1.59,21.81,1,8.64,9.71,14.84,22.47,13.82s12.26-17.7,12.26-17.7-2.16-57.44-2.16-73.61,12.26-17,12.26-17,257.49-5.34,269.23-5.34c6.36,0,12.47.42,12.13,3.81-.3,3-5.56,3.27-8.56,3.3-30.87.31-188.19,2.76-227,3.46-41.87.76-41.24,14.68-41.24,14.68s.63,57.78.63,77.18-18.51,21.83-28.09,22.59c-8.74.69-28.47-1.05-30.76-16.46a205,205,0,0,0-4.12-21.36,7.92,7.92,0,0,0-7.95-5.87l-11.19.4a9.1,9.1,0,0,0-8.71,8l-1.22,10a26.64,26.64,0,0,1-13.92,20.41,47.06,47.06,0,0,1-23.23,5.64l-1.29-.06A27.7,27.7,0,0,1,310.28,183c-.68-25.58-1.62-54.06-1.2-75.53.19-9.67.88-76.59,1-83.39.08-4.47-2.33-16.53-15.16-10.91C281.65,19,274.38,25.13,261.68,30.91,172.44,71.54,94.49,41.54,94.49,41.54s43,9.19,84.69,5.7c33.21-2.78,64.09-17,82.22-25.8,0,0,21.31-12.5,35.22-19.48C308.63-4.06,322.49,4,322.37,22.9Z"/><path class="cls-1" d="M456.39,78.09,743,67.88s14.76-5.11,0-5.11-280.43,5.62-280.43,5.62S443.11,70.43,456.39,78.09Z"/><path class="cls-1" d="M615,158.76l-5.8.23-7.08.27a4.61,4.61,0,0,0-2.14.62c-1.22.73-2.78,2.12-1.45,4a20.43,20.43,0,0,0,5,4A179.5,179.5,0,0,1,620,179.7h0a11.82,11.82,0,0,1,2,2.1l.6.81a10.54,10.54,0,0,1,1.3,2.6,19.87,19.87,0,0,1,1,3.79c.32,2,.55,4.08-.17,4.64-1.18.94-5.77-.66-7.33-1.37-3.44-1.55-6.72-2.89-9.43-5.89a80,80,0,0,1-7.69-10,11.23,11.23,0,0,0-1-1.29,81,81,0,0,0-8.17-8,4.7,4.7,0,0,0-4.16-1,4.8,4.8,0,0,0-3.5,4.89l0,.62c.28,4.91.4,10.37.45,13.3a5.45,5.45,0,0,1-2.49,4.77,4,4,0,0,1-4.91-.43,7.43,7.43,0,0,1-2.67-5.53l-1.72-44.26a4.65,4.65,0,0,1,4.65-4.83l39.15,0a10.65,10.65,0,0,1,10,6.62C631.37,155.2,615,158.76,615,158.76Zm-6.37-16.61H584.47V152.5H608.6a5.61,5.61,0,0,0,3.88-1.52,5,5,0,0,0,1.61-3.66A5.34,5.34,0,0,0,608.6,142.15Z"/><path class="cls-1" d="M689.26,167.28s-19.13.8-22,1.05-2.86.93-2.86.93l.1,1.72,0,2-.15,1.9-.44,1.08-.51.67-1.15.58-1.07.27-1.33.16-1,.06-.81,0-.7-.1-.83-.25-.74-.45-.86-.91-.54-.77-.22-.42-.19-.58-.14-1.08-.5-47c.66-4.73,9.11-4.55,9.52-.56s4.74,3.72,4.74,3.72,16.27.18,29.25.18c0,0,13.5-.08,16.38,8.43C724.2,170.3,689.26,167.28,689.26,167.28Zm16.83-18.6h0a10.55,10.55,0,0,0-10.55-10.55H664.9v21.1h30.64A10.55,10.55,0,0,0,706.09,148.68Z"/><path class="cls-1" d="M699.33,186.47l1.8,0c3-.07,5,.29,5,2.9,0,3.29.46,5.73-2.82,5.89l-5.65.27c-13.34.65-29.86,1.42-44.88,1.82-19,.5-18.52-10.39-18.3-12.24a4.3,4.3,0,0,0,0-.62l-.32-70.51s-.2-6.27,6.82-6.27c5.33,0,5.36,5.54,5.36,5.54l.47,60.55,0,4.1c0,2.53-.61,8.79,1.92,9,1.42.1,8.14.38,10.11.35,12.24-.18,10.78.24,26.17-.51"/><path class="cls-1" d="M421.12,123.71c0,8.36-13,15.13-29.11,15.13s-29.1-6.77-29.1-15.13,13-15.13,29.1-15.13S421.12,115.36,421.12,123.71ZM392,115.39c-11.85,0-21.46,3.73-21.46,8.32S380.16,132,392,132s21.47-3.73,21.47-8.33S403.87,115.39,392,115.39Z"/></g></g></svg>