<svg width="635" height="174" viewBox="0 0 635 174" fill="none" xmlns="http://www.w3.org/2000/svg">
<path d="M78.0629 31.1551C78.0629 31.1551 36.5622 14.4556 9.97028 30.1119C9.97028 30.1119 -10.1536 42.357 6.77857 61.9294C6.77857 61.9294 25.9119 80.6242 83.8198 67.8988C87.7989 67.0709 88.1714 69.4802 88.1714 73.4708V152.878C88.1714 154.709 88.9153 156.466 90.2394 157.761C91.5635 159.056 93.3595 159.783 95.2321 159.783H96.2057C97.1469 159.802 98.0826 159.637 98.9583 159.299C99.834 158.961 100.632 158.456 101.307 157.813C101.981 157.171 102.518 156.404 102.886 155.556C103.255 154.709 103.447 153.799 103.453 152.878V76.6584C103.453 69.4388 102.691 66.955 109.557 64.6285C109.557 64.6285 153.851 48.6328 173.594 60.3315C183.262 66.0525 181.07 78.2563 173.162 81.8578C161.174 87.3553 129.452 80.7649 129.452 80.7649C166.745 92.6044 180.121 87.2311 185.7 80.5911C192.084 72.9823 187.665 62.9892 187.665 62.9892C171.02 33.5975 89.6275 56.3408 89.6275 56.3408L75.3029 59.0896C62.4938 61.1594 52.5292 63.2789 44.4864 63.6929C36.2744 64.1152 28.4009 62.865 23.3213 61.0187C12.3154 56.9866 11.1217 48.8894 13.5176 43.6817C13.5006 43.6983 22.5085 19.7378 78.0629 31.1551Z" fill="#A6FF00"/>
<path d="M171.02 132.596C166.745 132.315 162.444 132.281 158.321 132.406C158.317 132.348 158.317 132.29 158.321 132.232C158.365 130.431 158.12 128.634 157.593 126.908C156.82 124.473 155.372 122.295 153.411 120.616C151.716 119.237 149.721 118.257 147.578 117.751C143.768 116.691 140.644 117.139 137.884 117.536C134.656 118.02 131.52 118.971 128.58 120.359C125.481 121.8 122.848 123.017 120.427 125.832C118.563 127.947 117.274 130.487 116.676 133.217C116.397 134.575 116.406 136.363 116.414 139.94C116.414 141.91 116.473 141.273 116.558 145.222C116.626 148.02 117.066 150.802 117.134 153.592C117.131 154.217 117.273 154.834 117.548 155.397C117.968 156.185 118.616 156.833 119.411 157.26C119.957 157.6 120.558 157.847 121.189 157.989C121.929 158.121 122.685 158.144 123.432 158.055C123.794 158.032 124.153 157.985 124.508 157.914C124.91 157.864 125.297 157.732 125.644 157.526C125.991 157.321 126.29 157.047 126.523 156.722C126.83 156.435 127.098 156.109 127.318 155.753C127.403 155.497 127.538 155.091 127.674 154.594C128.732 150.744 128.334 147.756 127.674 142.374C127.208 138.4 136.436 138.011 147.146 138.284V138.574C147.146 143.202 147.146 144.899 147.146 145.785C147.214 153.145 147.451 151.738 147.332 152.756C147.137 153.837 147.213 154.948 147.552 155.993C147.866 156.926 148.455 157.748 149.245 158.353C149.882 158.815 150.617 159.13 151.396 159.272C152.397 159.486 153.434 159.486 154.435 159.272C155.556 159.14 156.608 158.675 157.449 157.939C157.693 157.682 157.914 157.405 158.109 157.111C158.405 156.705 158.644 156.262 158.821 155.795C158.955 155.4 159.045 154.992 159.092 154.578C159.278 152.864 158.897 144.916 158.584 138.681C161.276 138.772 163.866 138.847 166.203 138.855C173.035 138.855 177.962 136.032 177.979 135.75C177.996 135.469 177.581 133.027 171.02 132.596ZM127.293 133.06C127.969 130.964 129.187 129.075 130.829 127.575C132.471 126.076 134.481 125.016 136.665 124.499C138.079 124.184 142.261 123.257 144.902 125.583C146.596 127.074 146.858 129.21 147.214 132C147.26 132.316 147.288 132.633 147.298 132.952C135.293 133.879 126.607 135.171 127.284 133.06H127.293Z" fill="#A6FF00"/>
<path d="M238.817 152.208H240.341C242.881 152.15 244.574 152.448 244.532 154.609C244.532 157.333 244.921 159.353 242.144 159.486L237.361 159.709C226.067 160.247 212.081 160.885 199.365 161.216C183.28 161.63 183.686 152.614 183.872 151.082C183.885 150.911 183.885 150.74 183.872 150.569L183.602 92.1912C183.602 92.1912 183.432 87 189.375 87C193.888 87 193.913 91.5868 193.913 91.5868L194.311 141.718V145.113C194.311 147.207 193.795 152.39 195.937 152.564C197.139 152.647 202.828 152.879 204.496 152.854C214.858 152.705 213.622 153.053 226.652 152.432" fill="#A6FF00"/>
<path d="M198.11 113.998V139.399C198.11 139.399 197.179 145.881 207.161 146.163C215.313 146.395 227.318 146.37 233.761 146.337C234.72 146.352 235.66 146.075 236.451 145.544C237.241 145.013 237.843 144.254 238.172 143.373C238.68 141.858 238.096 140.276 233.693 139.995C227.31 139.589 221.629 139.589 215.483 139.647C214.049 139.674 212.632 139.334 211.374 138.66C210.116 137.986 209.061 137.002 208.312 135.805C207.118 133.835 206.907 131.79 210.793 131.508C216.507 131.094 224.237 130.763 227.936 130.614C228.373 130.605 228.803 130.51 229.201 130.333C229.599 130.157 229.956 129.904 230.251 129.589C230.547 129.274 230.773 128.904 230.918 128.501C231.063 128.098 231.123 127.671 231.094 127.245C230.95 125.829 229.816 124.446 226.074 124.181C220.799 123.817 215.364 123.353 212.232 123.088C211.154 123.011 210.141 122.553 209.384 121.798C208.626 121.044 208.176 120.046 208.117 118.99C208.075 117.632 208.778 116.415 211.368 116.291C216.55 116.051 229.291 116.97 234.912 116.879C236.199 116.879 237.969 116.481 238.163 115.223C238.612 112.325 238.951 110.76 225.896 110.206C206.009 109.378 205.578 108.947 205.578 108.947C205.578 108.947 198.11 108.078 198.11 113.998Z" fill="#A6FF00"/>
<path d="M438.548 125.33C424.96 125.189 424.689 130.297 424.749 134.437C424.749 134.437 424.605 142.12 436.931 143.321C445.787 144.148 461.576 146.889 473.132 144.48C473.132 144.48 477.027 144.596 477.137 139.09C477.247 133.584 477.137 116.264 477.137 116.264C477.137 116.264 477.027 112.033 468.671 112.033H420.685C420.685 112.033 405.878 111.503 405.658 118.375L407.283 144.041C407.283 144.041 406.851 152.535 420.465 152.916C420.465 152.916 431.428 153.454 438.294 151.915C439.141 151.724 440.047 151.625 440.919 151.443C443.552 150.904 451.679 149.787 454.617 155.88C454.914 156.458 455.256 157.011 455.641 157.536C456.199 158.351 457.003 158.975 457.941 159.321C458.879 159.667 459.905 159.717 460.873 159.465C462.321 159.068 463.506 158.174 462.296 156.154C462.101 155.839 461.898 155.524 461.678 155.21C459.973 152.707 457.696 150.625 455.028 149.13C452.36 147.634 449.373 146.765 446.303 146.591C444.981 146.518 443.654 146.568 442.341 146.74H442.248C409.611 153.521 418.848 122.316 418.848 122.316C419.241 121.129 420.095 120.142 421.227 119.567C422.759 118.739 425.561 118.648 427.382 118.507C431.259 118.209 453.694 118.367 456.623 118.309C456.821 118.296 457.019 118.296 457.216 118.309C458.985 118.491 467.375 119.6 467.587 124.518C467.807 130.016 468.129 136.109 468.129 136.109C468.129 136.109 468.975 139.918 458.816 139.81C448.657 139.702 444.661 139.495 444.661 139.495C440.36 139.231 436.711 138.576 434.933 137.202C434.122 136.579 433.488 135.764 433.091 134.833C432.694 133.903 432.547 132.888 432.664 131.887C432.664 131.887 432.842 128.749 435.865 128.327C435.865 128.327 438.768 127.871 440.428 129.362C440.622 129.543 440.801 129.739 440.961 129.949C441.072 130.109 441.225 130.237 441.404 130.318C441.583 130.4 441.781 130.434 441.977 130.415C442.174 130.397 442.362 130.327 442.521 130.213C442.68 130.099 442.805 129.945 442.883 129.767C443.789 127.673 443.992 125.081 439.378 125.247C431.725 125.628 438.548 125.33 438.548 125.33Z" fill="#A6FF00"/>
<path d="M275.145 18.9624V141.282C275.136 145.838 276.601 150.28 279.328 153.974C282.056 157.667 285.908 160.423 290.333 161.847L290.706 161.963C293.04 162.789 295.572 162.921 297.982 162.342C300.393 161.763 302.574 160.499 304.251 158.71C306.934 155.98 308.593 152.444 308.958 148.675C309.212 146.257 309.509 142.557 309.712 137.167C310.144 125.576 319.219 126.337 319.219 126.337L345.464 127C347.491 127.052 349.424 127.847 350.881 129.227C352.337 130.607 353.211 132.471 353.329 134.451C353.668 140.338 354.176 148.311 354.675 152.508C355.522 159.662 362.896 164.795 373.699 163.95C384.501 163.106 384.078 149.296 384.078 149.296C384.078 149.296 382.249 101.739 382.249 88.3517C382.249 74.964 392.629 74.2768 392.629 74.2768C392.629 74.2768 610.622 69.8556 620.561 69.8556C625.945 69.8556 631.118 70.2033 630.83 73.01C630.576 75.4938 626.123 75.7174 623.583 75.7422C597.448 75.9989 464.26 78.0273 431.403 78.6069C395.956 79.2361 396.489 90.761 396.489 90.761C396.489 90.761 397.023 138.599 397.023 154.661C397.023 170.723 381.352 172.735 373.241 173.364C365.842 173.935 349.138 172.495 347.2 159.736C346.358 153.785 345.194 147.882 343.712 142.052C343.319 140.615 342.44 139.352 341.217 138.469C339.994 137.586 338.5 137.136 336.981 137.192L327.508 137.523C325.673 137.587 323.922 138.289 322.57 139.503C321.219 140.718 320.354 142.364 320.134 144.146L319.101 152.426C318.678 155.963 317.385 159.349 315.333 162.291C313.28 165.234 310.53 167.647 307.316 169.324C301.281 172.51 294.507 174.118 287.649 173.993L286.557 173.944C280.743 173.506 275.305 170.966 271.302 166.819C267.3 162.673 265.021 157.216 264.91 151.515C264.334 130.336 263.538 106.757 263.894 88.9809C264.054 80.9748 264.639 25.5694 264.74 19.9394C264.808 16.2385 262.768 6.25364 251.906 10.9066C240.671 15.7335 234.516 20.8087 223.764 25.5942C148.213 59.2332 82.2202 34.3952 82.2202 34.3952C82.2202 34.3952 118.624 42.0039 153.919 39.1144C182.035 36.8127 208.178 25.0395 223.527 17.7537C223.527 17.7537 241.569 7.40447 253.345 1.62549C263.513 -3.35868 275.247 3.31447 275.145 18.9624Z" fill="#A6FF00"/>
<path d="M386.388 62.473L629.034 54.0198C629.034 54.0198 641.53 49.7891 629.034 49.7891C616.539 49.7891 391.621 54.4421 391.621 54.4421C391.621 54.4421 375.146 56.131 386.388 62.473Z" fill="#A6FF00"/>
<path d="M520.668 129.264L515.758 129.455L509.764 129.678C509.126 129.702 508.504 129.878 507.952 130.192C506.92 130.796 505.599 131.947 506.725 133.504C507.949 134.818 509.378 135.936 510.958 136.815C515.791 139.818 520.446 143.085 524.901 146.601C525.537 147.111 526.105 147.695 526.595 148.34L527.103 149.011C527.569 149.675 527.94 150.4 528.203 151.163C528.591 152.179 528.874 153.231 529.05 154.301C529.321 155.957 529.515 157.679 528.906 158.143C527.907 158.921 524.021 157.596 522.7 157.009C519.788 155.725 517.011 154.616 514.717 152.132C512.327 149.544 510.15 146.776 508.206 143.853C507.951 143.477 507.668 143.12 507.36 142.785C505.217 140.42 502.905 138.207 500.443 136.161C499.965 135.76 499.396 135.476 498.784 135.333C498.172 135.189 497.533 135.189 496.921 135.333C496.03 135.577 495.25 136.111 494.711 136.848C494.172 137.584 493.906 138.478 493.958 139.382V139.895C494.195 143.96 494.297 148.481 494.339 150.907C494.367 151.687 494.188 152.461 493.818 153.153C493.449 153.846 492.902 154.432 492.231 154.856C491.597 155.259 490.843 155.443 490.09 155.378C489.336 155.314 488.627 155.005 488.074 154.5C487.385 153.938 486.827 153.239 486.438 152.45C486.048 151.66 485.835 150.798 485.814 149.921L484.357 113.277C484.337 112.759 484.424 112.242 484.612 111.758C484.801 111.274 485.088 110.831 485.455 110.458C485.823 110.084 486.264 109.787 486.752 109.585C487.239 109.382 487.764 109.278 488.294 109.278H521.439C523.25 109.255 525.026 109.765 526.536 110.742C528.046 111.72 529.22 113.12 529.905 114.759C534.527 126.317 520.668 129.264 520.668 129.264ZM515.276 115.512H494.821V124.082H515.25C516.47 124.09 517.646 123.64 518.535 122.823C518.963 122.437 519.305 121.968 519.54 121.447C519.774 120.926 519.896 120.363 519.898 119.793C519.86 118.623 519.35 117.516 518.479 116.713C517.607 115.911 516.446 115.479 515.25 115.512H515.276Z" fill="#A6FF00"/>
<path d="M583.538 136.314C583.538 136.314 567.342 136.977 564.913 137.184C562.483 137.391 562.491 137.953 562.491 137.953L562.576 139.378V141.033L562.449 142.607L562.076 143.501L561.645 144.055L560.671 144.536L559.765 144.759L558.639 144.892L557.793 144.941H557.107L556.514 144.858L555.812 144.652L555.185 144.279L554.457 143.526L554 142.888L553.814 142.54L553.653 142.06L553.534 141.166L553.111 102.253C553.67 98.3368 560.823 98.4859 561.171 101.789C561.518 105.093 565.183 104.869 565.183 104.869C565.183 104.869 578.958 105.018 589.947 105.018C589.947 105.018 601.376 104.952 603.814 111.998C613.118 138.815 583.538 136.314 583.538 136.314ZM597.786 120.915C597.786 118.598 596.845 116.376 595.17 114.738C593.495 113.1 591.223 112.18 588.855 112.18H562.915V129.649H588.855C591.223 129.649 593.495 128.729 595.17 127.091C596.845 125.453 597.786 123.231 597.786 120.915Z" fill="#A6FF00"/>
<path d="M592.062 152.208H593.585C596.125 152.15 597.819 152.448 597.819 154.609C597.819 157.333 598.208 159.353 595.431 159.486L590.648 159.709C579.354 160.247 565.368 160.885 552.652 161.216C536.567 161.63 536.973 152.614 537.159 151.082C537.172 150.911 537.172 150.74 537.159 150.569L536.888 92.1912C536.888 92.1912 536.719 87 542.662 87C547.174 87 547.2 91.5868 547.2 91.5868L547.598 141.718V145.113C547.598 147.207 547.081 152.39 549.223 152.564C550.425 152.647 556.115 152.879 557.782 152.854C568.145 152.705 566.909 153.053 579.938 152.432" fill="#A6FF00"/>
<path d="M356.53 100.245C356.53 107.167 345.524 112.772 331.885 112.772C318.246 112.772 307.249 107.167 307.249 100.245C307.249 93.3239 318.255 87.7188 331.885 87.7188C345.516 87.7188 356.53 93.3321 356.53 100.245ZM331.877 93.357C321.845 93.357 313.709 96.4452 313.709 100.245C313.709 104.046 321.853 107.109 331.877 107.109C341.901 107.109 350.053 104.021 350.053 100.212C350.053 96.4038 341.926 93.357 331.877 93.357Z" fill="#A6FF00"/>
</svg>
